<svg width="16" height="18" fill="none" xmlns="http://www.w3.org/2000/svg"><path d="M11.658 15.11c-.514 0-1.016-.18-1.444-.515a3.003 3.003 0 01-.957-1.37 3.556 3.556 0 01-.148-1.766c.1-.592.348-1.137.711-1.564a2.506 2.506 0 011.33-.836 2.24 2.24 0 011.502.174c.475.231.88.623 1.166 1.125.286.502.438 1.093.438 1.697 0 .81-.275 1.587-.762 2.16-.487.572-1.147.894-1.836.895zm0-5.047c-.335 0-.663.117-.942.336-.278.219-.495.53-.624.894a2.319 2.319 0 00-.096 1.15c.065.387.226.742.463 1.02.238.28.54.47.868.546.329.077.67.037.98-.113.309-.151.573-.406.76-.734.186-.328.285-.713.285-1.107 0-.528-.179-1.034-.497-1.408-.317-.373-.748-.583-1.197-.584zM4.202 15.11c-.514 0-1.016-.18-1.444-.515a3.003 3.003 0 01-.957-1.37 3.556 3.556 0 01-.148-1.766c.1-.592.348-1.137.712-1.564a2.506 2.506 0 011.33-.836 2.24 2.24 0 011.501.174c.475.231.88.623 1.166 1.125.286.502.438 1.093.438 1.697 0 .81-.275 1.587-.762 2.16-.487.572-1.147.894-1.836.895zm0-5.047a1.52 1.52 0 00-.942.336c-.278.219-.495.53-.624.894a2.32 2.32 0 00-.096 1.15c.065.387.227.742.464 1.02.237.28.539.47.867.546.329.077.67.037.98-.113.309-.151.574-.406.76-.734.186-.328.285-.713.285-1.107 0-.528-.179-1.034-.497-1.408-.317-.373-.748-.583-1.197-.584zM9.737 4.485a.785.785 0 00.347-.08.906.906 0 00.294-.231c.084-.1.15-.217.196-.347.045-.13.068-.268.067-.408a1.212 1.212 0 00-.066-.406 1.077 1.077 0 00-.194-.345.897.897 0 00-.293-.23.788.788 0 00-.692.001.908.908 0 00-.293.23 1.09 1.09 0 00-.197.344 1.225 1.225 0 00-.002.813c.045.129.111.246.195.345a.91.91 0 00.293.232c.11.054.227.081.345.082z" fill="#1D2E5B"/><path d="M11.08 6.61H9.844a.1.1 0 01-.057-.019.126.126 0 01-.042-.05L8.85 4.609a1.001 1.001 0 00-.266-.362.81.81 0 00-.376-.181.751.751 0 00-.406.037.865.865 0 00-.347.25L5.481 6.69c-.166.199-.26.465-.262.743 0 .578.355.784.522.9.805.545 1.372.944 1.683 1.166.016.011.03.028.04.048.009.02.014.042.014.065v2.295c0 .286.187.531.43.545a.391.391 0 00.18-.032.448.448 0 00.153-.113c.045-.05.08-.11.104-.176a.612.612 0 00.037-.209V9.067a.608.608 0 00-.05-.243.517.517 0 00-.138-.189l-1.045-.883a.128.128 0 01-.033-.042.15.15 0 01-.009-.11.139.139 0 01.025-.047l1.186-1.488a.113.113 0 01.044-.034.097.097 0 01.102.015.127.127 0 01.036.046l.616 1.307c.04.083.096.152.166.2.07.048.149.074.23.073h1.58a.395.395 0 00.179-.042.459.459 0 00.15-.122.552.552 0 00.096-.181.617.617 0 00.028-.211c-.012-.286-.222-.506-.465-.506z" fill="#1D2E5B"/></svg>