<svg width="14" height="16" fill="none" xmlns="http://www.w3.org/2000/svg"><g clip-path="url(#clip0)"><path d="M3.998 10.857c0-.315-.106-.585-.318-.808a1.017 1.017 0 00-.765-.335c-.3 0-.554.112-.766.335a1.133 1.133 0 00-.317.808c0 .316.106.585.317.808.212.223.467.335.766.335s.554-.112.765-.335c.212-.223.318-.492.318-.808zm8.663 0c0-.315-.106-.585-.317-.808a1.017 1.017 0 00-.766-.335c-.3 0-.554.112-.766.335a1.133 1.133 0 00-.317.808c0 .316.106.585.317.808.212.223.467.335.766.335s.554-.112.766-.335c.211-.223.317-.492.317-.808zm-.39-3.536l-.609-3.428a.589.589 0 00-.19-.335.505.505 0 00-.342-.13H3.362a.505.505 0 00-.342.13.589.589 0 00-.19.335L2.22 7.32a.587.587 0 00.119.474.503.503 0 00.414.205h8.985c.169 0 .307-.068.414-.205a.587.587 0 00.119-.474zM10.36 1.857c0-.119-.04-.22-.119-.303a.382.382 0 00-.287-.125H4.539a.382.382 0 00-.288.125.425.425 0 00-.118.303c0 .12.04.22.118.304a.381.381 0 00.288.125h5.415a.382.382 0 00.287-.125.425.425 0 00.119-.304zm3.384 6.473v5.384H12.66v1.143c0 .316-.106.585-.317.808a1.017 1.017 0 01-.766.335c-.3 0-.554-.112-.766-.335a1.133 1.133 0 01-.317-.808v-1.143H3.998v1.143c0 .316-.106.585-.318.808a1.017 1.017 0 01-.765.335c-.3 0-.554-.112-.766-.335a1.133 1.133 0 01-.317-.808v-1.143H.749V8.33c0-.666.07-1.33.212-1.99l.87-4.054c.052-.465.327-.872.826-1.224.499-.35 1.147-.616 1.946-.794C5.4.089 6.282 0 7.246 0c.965 0 1.846.09 2.644.268.798.178 1.447.443 1.946.794.499.352.774.76.825 1.224l.888 4.053c.13.607.195 1.271.195 1.991z" fill="#1D2E5B"/></g><defs><clipPath id="clip0"><path fill="#fff" transform="translate(.746)" d="M0 0h13v16H0z"/></clipPath></defs></svg>