<svg width="24" height="24" fill="none" xmlns="http://www.w3.org/2000/svg"><path fill-rule="evenodd" clip-rule="evenodd" d="M12 .797c-4.226 0-8.462.714-9.999 2.138C.726 4.115.301 6.202.158 7.523c0 0-.02.131-.02.187 0 .518.445.934.989.934.064 0 2.441-.182 3.874-.294.035-.005.07-.01.104-.02.534-.013.964-.424.964-.933l.005-1.839c0-.57.49-1.027 1.092-1.027h9.668c.603 0 1.092.458 1.092 1.027l.005 1.84c0 .508.43.919.964.933.034.01.069.014.104.019 1.433.112 3.81.294 3.875.294.543 0 .988-.416.988-.934 0-.056-.02-.187-.02-.187-.143-1.32-.568-3.407-1.843-4.588C20.462 1.51 16.226.797 12 .797zm0 12.136c-1.092 0-1.977.836-1.977 1.868 0 1.031.885 1.867 1.977 1.867s1.977-.836 1.977-1.867c0-1.032-.885-1.867-1.977-1.867zm-1.483-4.2V7.564c0-.644-.553-1.167-1.235-1.167s-1.236.523-1.236 1.167v1.167L1.378 15.46a2.273 2.273 0 00-.746 1.671v1.872c0 1.031.885 1.867 1.977 1.867h.494v1.167c0 .644.554 1.167 1.236 1.167.682 0 1.236-.523 1.236-1.167v-1.167h12.85v1.167c0 .644.554 1.167 1.236 1.167.682 0 1.235-.523 1.235-1.167v-1.167h.495c1.092 0 1.977-.836 1.977-1.867V17.13c0-.654-.287-1.246-.746-1.671l-6.668-6.727V7.565c0-.644-.554-1.167-1.236-1.167-.682 0-1.235.523-1.235 1.167v1.167h-2.966zM12 11.065c2.185 0 3.954 1.671 3.954 3.735 0 2.063-1.77 3.734-3.954 3.734-2.185 0-3.954-1.671-3.954-3.734 0-2.064 1.77-3.735 3.954-3.735z" fill="#FFD74B"/></svg>