<svg width="21" height="19" fill="none" xmlns="http://www.w3.org/2000/svg"><path fill-rule="evenodd" clip-rule="evenodd" d="M10.256 7.124l1.12-2.348c.277-.582.76-1.418 1.441-2.095.671-.665 1.475-1.118 2.446-1.118 2.098 0 3.756 1.74 3.756 3.834 0 1.59-.694 2.712-2.338 4.424-.422.439-.903.912-1.435 1.435-1.387 1.365-3.112 3.064-4.99 5.336-1.878-2.272-3.603-3.97-4.99-5.336a74.225 74.225 0 01-1.434-1.435C2.187 8.11 1.493 6.987 1.493 5.397c0-2.093 1.658-3.834 3.756-3.834.971 0 1.775.453 2.446 1.118.682.677 1.164 1.513 1.442 2.095l1.12 2.348zm.49 10.887a.646.646 0 01-.22.176.617.617 0 01-.76-.176c-2.005-2.497-3.819-4.283-5.312-5.752C1.869 9.713.242 8.113.242 5.397.242 2.554 2.482.25 5.249.25c2.003 0 3.404 1.379 4.261 2.636.326.48.573.94.746 1.303.217-.454.466-.89.746-1.303C11.86 1.627 13.26.25 15.263.25c2.767 0 5.008 2.304 5.008 5.147 0 2.716-1.628 4.316-4.213 6.862-1.493 1.47-3.307 3.256-5.311 5.75v.002z" fill="#192144"/></svg>