<svg viewBox="0 0 25 25" fill="none" xmlns="http://www.w3.org/2000/svg"><path d="M18.945 21.875a4.492 4.492 0 110-8.984 4.492 4.492 0 010 8.984zm0-7.422a2.93 2.93 0 100 5.858 2.93 2.93 0 000-5.858zm-12.89 7.422a4.492 4.492 0 110-8.985 4.492 4.492 0 010 8.985zm0-7.422a2.93 2.93 0 100 5.858 2.93 2.93 0 000-5.858zm9.57-8.203a1.557 1.557 0 001.563-1.567 1.541 1.541 0 00-1.553-1.558 1.562 1.562 0 00-.01 3.125z" fill="currentColor"/><path d="M17.947 9.375H15.81a.196.196 0 01-.171-.102l-1.55-2.84a1.514 1.514 0 00-2.411-.378L8.267 9.492a1.59 1.59 0 00-.454 1.094c0 .85.615 1.152.903 1.323a155.61 155.61 0 012.909 1.714.195.195 0 01.094.167v3.375c0 .42.323.78.743.802a.782.782 0 00.82-.78v-4.199a.781.781 0 00-.326-.634l-1.807-1.3a.195.195 0 01-.028-.293l2.05-2.187a.195.195 0 01.314.039l1.066 1.923a.781.781 0 00.683.402h2.735a.78.78 0 00.781-.82.797.797 0 00-.803-.743z" fill="currentColor"/></svg>