<svg viewBox="0 0 28 28" fill="none" xmlns="http://www.w3.org/2000/svg"><path d="M23.375 23.242v-3.349c0-.937-.133-1.875-.67-2.812-.535-.938-1.205-1.742-2.142-2.277-.938-.67-2.947-.804-3.884-.804l-2.143 2.277.803 1.741v4.018L14 23.51l-1.339-1.474v-4.018l.938-1.741L11.321 14c-1.072 0-3.08.134-4.018.804-.938.535-1.474 1.339-2.01 2.277-.535.937-.669 1.74-.669 2.812v3.349S8.106 24.715 14 24.715c5.893 0 9.375-1.473 9.375-1.473zM14 3.419c-2.545 0-4.018 2.41-3.617 5.09.402 2.678 1.742 4.553 3.617 4.553s3.214-1.875 3.616-4.554c.402-2.812-1.071-5.09-3.616-5.09z" fill="currentColor"/></svg>