<svg viewBox="0 0 22 24" fill="none" xmlns="http://www.w3.org/2000/svg"><path d="M15.454 6c1.005 0 1.819-.895 1.819-2s-.814-2-1.819-2c-1.004 0-1.818.895-1.818 2s.814 2 1.818 2zM14.343 10.969c.208.342.508.605.857.754.35.148.732.175 1.096.076l3.014-.829-.44-1.94-3.014.829-1.253-2.067a1.83 1.83 0 00-1.157-.854l-3.496-.77a1.669 1.669 0 00-1.156.164c-.358.193-.649.51-.827.903L6.46 10.551l1.626.895 1.508-3.317 1.788.394L6.758 17h-4.03v2h4.03c.635 0 1.232-.372 1.56-.971l1.743-3.196 4.699 1.034 1.65 5.449 1.725-.633-1.65-5.448a2.032 2.032 0 00-.523-.867 1.767 1.767 0 00-.846-.463l-2.763-.607 1.61-2.954.38.625z" fill="currentColor"/></svg>