<svg viewBox="0 0 18 20" fill="none" xmlns="http://www.w3.org/2000/svg"><path d="M4.501 13.571c0-.394-.146-.73-.44-1.01a1.481 1.481 0 00-1.06-.418c-.413 0-.767.14-1.06.418-.292.28-.439.616-.439 1.01 0 .395.147.732.44 1.01.292.28.646.419 1.06.419.414 0 .767-.14 1.06-.418.293-.28.44-.616.44-1.01zm11.995 0c0-.394-.146-.73-.44-1.01a1.482 1.482 0 00-1.06-.418c-.413 0-.767.14-1.06.418-.292.28-.439.616-.439 1.01 0 .395.147.732.44 1.01.292.28.646.419 1.06.419.414 0 .767-.14 1.06-.418.293-.28.44-.616.44-1.01zm-.539-4.42l-.843-4.285a.744.744 0 00-.738-.58H3.623a.744.744 0 00-.738.58L2.04 9.152a.682.682 0 00.164.591c.149.171.34.257.574.257h12.44a.725.725 0 00.574-.257.682.682 0 00.164-.591zm-2.647-6.83a.505.505 0 00-.164-.379.556.556 0 00-.398-.156H5.25a.556.556 0 00-.399.156.505.505 0 00-.164.38c0 .148.055.275.164.379.11.104.243.156.399.156h7.497a.556.556 0 00.398-.156.505.505 0 00.164-.38zm4.685 8.092v6.73h-1.499v1.428c0 .395-.146.731-.44 1.01a1.482 1.482 0 01-1.06.419c-.413 0-.767-.14-1.06-.419a1.344 1.344 0 01-.439-1.01v-1.428H4.501v1.428c0 .395-.146.731-.44 1.01a1.481 1.481 0 01-1.06.419c-.413 0-.767-.14-1.06-.419a1.345 1.345 0 01-.439-1.01v-1.428h-1.5v-6.73c0-.833.099-1.663.294-2.489l1.206-5.067c.07-.58.451-1.09 1.142-1.529C3.336.89 4.234.558 5.34.335 6.444.112 7.664 0 8.999 0c1.336 0 2.556.112 3.66.335 1.106.223 2.004.554 2.695.993.691.44 1.072.949 1.142 1.53l1.23 5.066c.18.759.27 1.589.27 2.489z" fill="currentColor"/></svg>