<svg width="14" height="17" fill="none" xmlns="http://www.w3.org/2000/svg"><path d="M9.931 4.25c.605 0 1.096-.634 1.096-1.417 0-.782-.491-1.416-1.096-1.416-.605 0-1.095.634-1.095 1.416 0 .783.49 1.417 1.095 1.417zM9.261 7.77c.126.242.306.428.517.534.21.105.44.124.66.054l1.816-.588-.264-1.374-1.817.587-.755-1.464c-.161-.312-.412-.53-.697-.605L6.615 4.37a.875.875 0 00-.697.116 1.3 1.3 0 00-.498.64l-.908 2.349.98.634.908-2.35 1.077.28-2.785 6.004h-2.43v1.416h2.43c.382 0 .742-.263.939-.688l1.05-2.263 2.832.732.994 3.86 1.039-.449-.994-3.859a1.505 1.505 0 00-.315-.614 1.03 1.03 0 00-.51-.328l-1.665-.43.97-2.092.23.443z" fill="#1D2E5B"/></svg>