<?xml version="1.0" encoding="UTF-8"?><!DOCTYPE svg PUBLIC "-//W3C//DTD SVG 1.1//EN" "http://www.w3.org/Graphics/SVG/1.1/DTD/svg11.dtd"><svg xmlns="http://www.w3.org/2000/svg" xmlns:xlink="http://www.w3.org/1999/xlink"><symbol id="icon-add-button"><path stroke="currentColor" stroke-width="2" d="M0 10h20M10 20V0"/></symbol><symbol id="icon-button-decrease"><path stroke="currentColor" stroke-width="2" d="M0 1.972h20"/></symbol><symbol id="icon-button-increase"><path stroke="currentColor" stroke-width="2" d="M0 9.972h20M10 19.722V.278"/></symbol><symbol id="icon-button-left"><path d="M23.55 1.596a1.826 1.826 0 00-1.295-.548 1.797 1.797 0 00-1.294.548l-12.155 12.4a1.488 1.488 0 00-.427 1.052 1.512 1.512 0 00.427 1.052l12.155 12.4a1.802 1.802 0 002.588 0c.717-.731.123-1.499-.593-2.23l-6.402-6.5-4.51-4.77L23.565 3s.701-.687-.016-1.404z" fill="currentColor"/></symbol><symbol id="icon-button-right"><path d="M10.28 28.174a1.827 1.827 0 001.295.548 1.796 1.796 0 001.294-.548l12.154-12.4a1.488 1.488 0 00.428-1.052 1.512 1.512 0 00-.428-1.052L12.87 1.27a1.802 1.802 0 00-2.589 0C9.564 2 10.718 3.269 11.435 4l10.473 10.722L10.874 26c-.702.716-1.31 1.457-.594 2.174z" fill="currentColor"/></symbol><symbol id="icon-close" viewBox="0 0 16 16">
<path d="M14 2L2 14" stroke="currentColor" stroke-width="2" stroke-linecap="round" stroke-linejoin="round"/>
<path d="M2 2L14 14" stroke="currentColor" stroke-width="2" stroke-linecap="round" stroke-linejoin="round"/>
</symbol><symbol id="icon-contacts-mail" viewBox="0 0 47 50"><path fill-rule="evenodd" clip-rule="evenodd" d="M37.279 32.933L28.618 25l8.66-7.933-1.18-1.262L23.5 27.344 10.902 15.805l-1.18 1.262L18.381 25l-8.66 7.933 1.18 1.262 8.76-8.023 3.838 3.515 3.838-3.515 8.76 8.023 1.18-1.262zM8.152 12.5c-1.618 0-2.93 1.398-2.93 3.116v18.768c0 1.721 1.301 3.116 2.93 3.116h30.696c1.618 0 2.93-1.398 2.93-3.116V15.616c0-1.721-1.301-3.116-2.93-3.116H8.152z" fill="currentColor"/></symbol><symbol id="icon-contacts-phone" viewBox="0 0 36 34"><path fill-rule="evenodd" clip-rule="evenodd" d="M18 2.172c-5.593 0-11.2.946-13.234 2.83-1.687 1.563-2.25 4.325-2.44 6.073 0 0-.026.173-.026.247 0 .686.589 1.236 1.309 1.236.085 0 3.231-.241 5.128-.39.046-.006.092-.012.137-.024.707-.018 1.276-.562 1.276-1.236l.006-2.434c0-.754.648-1.36 1.446-1.36h12.795c.799 0 1.447.606 1.447 1.36l.006 2.434c0 .674.57 1.218 1.275 1.236.046.012.092.018.138.025 1.897.148 5.044.389 5.128.389.72 0 1.309-.55 1.309-1.236 0-.074-.026-.247-.026-.247-.19-1.748-.752-4.51-2.44-6.073-2.035-1.884-7.641-2.83-13.234-2.83zm0 16.063c-1.446 0-2.617 1.106-2.617 2.472 0 1.365 1.171 2.47 2.617 2.47s2.616-1.105 2.616-2.47c0-1.366-1.17-2.472-2.616-2.472zm-1.962-5.56v-1.544c0-.853-.733-1.545-1.636-1.545-.902 0-1.635.692-1.635 1.545v1.544l-8.825 8.903a3.008 3.008 0 00-.988 2.212v2.477c0 1.366 1.171 2.471 2.617 2.471h.654v1.545c0 .852.733 1.544 1.636 1.544.902 0 1.635-.692 1.635-1.544v-1.545h17.008v1.545c0 .852.732 1.544 1.635 1.544s1.636-.692 1.636-1.544v-1.545h.654c1.446 0 2.616-1.105 2.616-2.47V23.79c0-.866-.38-1.65-.987-2.212l-8.825-8.903v-1.544c0-.853-.733-1.545-1.635-1.545-.903 0-1.636.692-1.636 1.545v1.544h-3.924zM18 15.765c2.891 0 5.233 2.211 5.233 4.942 0 2.73-2.342 4.942-5.233 4.942-2.892 0-5.233-2.212-5.233-4.942 0-2.731 2.341-4.943 5.233-4.943z" fill="currentColor"/></symbol><symbol id="icon-dots" viewBox="0 0 17 3">
<circle cx="1.5" cy="1.5" r="1.5" fill="currentColor"/>
<circle cx="8.5" cy="1.5" r="1.5" fill="currentColor"/>
<circle cx="15.5" cy="1.5" r="1.5" fill="currentColor"/>
</symbol><symbol id="icon-dropdown" viewBox="0 0 21 11">
<path d="M0.41098 0.481236C0.280705 0.596555 0.177346 0.73355 0.106823 0.884374C0.0363008 1.0352 0 1.19689 0 1.36018C0 1.52347 0.0363008 1.68516 0.106823 1.83599C0.177346 1.98681 0.280705 2.12381 0.41098 2.23913L9.71087 10.4923C9.8144 10.5843 9.93738 10.6574 10.0728 10.7072C10.2082 10.7571 10.3533 10.7827 10.4999 10.7827C10.6464 10.7827 10.7916 10.7571 10.9269 10.7072C11.0623 10.6574 11.1853 10.5843 11.2888 10.4923L20.5887 2.23913C21.1371 1.75248 21.1371 0.967883 20.5887 0.481236C20.0404 -0.0054121 19.4645 0.397726 18.9162 0.884374L14.0412 5.23128L10.4637 8.29358L1.46374 0.470589C1.46374 0.470589 0.948157 -0.0054121 0.41098 0.481236Z" fill="currentColor"/>
</symbol><symbol id="icon-facebook" viewBox="0 0 14 28"><path d="M9.53 27.75H2.71v-12.9H0V8.47h2.63c-.2-2.89.3-5 1.52-6.44A6.21 6.21 0 018.74 0h4.78v6.15H9.76a6.55 6.55 0 00-.25 2.32h4v6.38h-4l.02 12.9zm-5.31-1.5H8v-12.9h4V10H8v-.76c0-2 0-3.79 1-4.46l.19-.13H12V1.5H8.78A4.67 4.67 0 005.29 3c-1 1.23-1.41 3.29-1.1 6.14l.1.83H1.5v3.38h2.72v12.9z" fill="currentColor"/></symbol><symbol id="icon-heart" viewBox="0 0 13 11">
<path d="M3.25536 0.319092C4.94813 0.319092 6.31919 1.66335 6.31919 3.32165C6.31919 1.66335 7.69025 0.319092 9.38302 0.319092C11.0758 0.319092 12.4469 1.66335 12.4469 3.32165C12.4469 5.82097 9.96974 6.70258 6.61945 10.681C6.58256 10.7247 6.53658 10.7598 6.48472 10.7839C6.43286 10.808 6.37637 10.8204 6.31919 10.8204C6.26201 10.8204 6.20552 10.808 6.15366 10.7839C6.1018 10.7598 6.05582 10.7247 6.01893 10.681C2.66864 6.70258 0.191528 5.82097 0.191528 3.32165C0.191528 1.66335 1.56259 0.319092 3.25536 0.319092Z" stroke="currentColor"/>
</symbol><symbol id="icon-htmlacademy" viewBox="0 0 27 34"><path d="M13.643.016L13.5 0 0 1.407v24.606L13.5 34 27 26.013V1.407L13.643.016zm11.591 25L13.5 31.956 1.766 25.015V14.93l11.685 6.916.02 1.253-8.017-4.743-.011 1.225 8.046 4.809.02 1.286-8.045-4.758-.01 1.226L13.5 26.95l8.124-4.833V16.91l3.62-2.15-.01 10.256zm0-11.564l-3.22 1.88-1.482.875-7.065-4.187-.011 1.225 6.04 3.573-.053.031-.13.076-.86.492-4.986-2.948-.011 1.225 3.936 2.328-.933.61-.021.012-2.971-1.742-.011 1.225 1.947 1.135-1.988 1.186-11.618-6.872 11.638-6.958 11.8 6.834zm0-1.225L13.44 5.31 1.766 12.22V2.99L13.5 1.764 25.234 2.99v9.237z" fill="currentColor"/></symbol><symbol id="icon-instagram" viewBox="0 0 24 24"><path d="M17.28 2.4a4.33 4.33 0 014.32 4.32v10.56a4.33 4.33 0 01-4.32 4.32H6.72a4.33 4.33 0 01-4.31-4.32V6.72A4.33 4.33 0 016.72 2.4h10.56zm0-1.44H6.72A5.76 5.76 0 00.96 6.72v10.56a5.76 5.76 0 005.76 5.76h10.56a5.76 5.76 0 005.76-5.76V6.72A5.76 5.76 0 0017.28.96z" fill="currentColor"/><path d="M12.01 7.756a4.253 4.253 0 11-4.254 4.253 4.244 4.244 0 014.253-4.253zm0-1.44a5.693 5.693 0 105.682 5.693 5.681 5.681 0 00-5.683-5.693zM17.904 7.413a1.286 1.286 0 100-2.573 1.286 1.286 0 000 2.573z" fill="currentColor"/></symbol><symbol id="icon-level-demin" viewBox="0 0 64 64"><path d="M3.703 22.037A30 30 0 1032.76 2.01" stroke="#FF8D30" stroke-width="3" stroke-linecap="round"/></symbol><symbol id="icon-level-firsova" viewBox="0 0 64 64"><path d="M28.899 2.16a30 30 0 104.206-.14" stroke="#FF8D30" stroke-width="3" stroke-linecap="round"/></symbol><symbol id="icon-level-profile" viewBox="0 0 95 95"><path fill-rule="evenodd" clip-rule="evenodd" d="M5.479 25.333A47.293 47.293 0 000 47.5C0 73.734 21.267 95 47.5 95 73.734 95 95 73.734 95 47.5 95 21.267 73.734 0 47.5 0v3C72.077 3 92 22.923 92 47.5S72.077 92 47.5 92 3 72.077 3 47.5c0-8.071 2.149-15.64 5.905-22.167H5.48z" fill="#FF8D30"/></symbol><symbol id="icon-level-rogovay" viewBox="0 0 62 64"><path d="M30 62a30 30 0 100-60" stroke="#FF8D30" stroke-width="3" stroke-linecap="round"/></symbol><symbol id="icon-level-smolov" viewBox="0 0 62 62"><path d="M60 32A30 30 0 0030 2" stroke="#FF8D30" stroke-width="3" stroke-linecap="round"/></symbol><symbol id="icon-login-mail" viewBox="0 0 16 14"><path d="M1.26 2.6l6 3.76c.2.127.462.186.724.186.262 0 .523-.06.725-.185l6-3.76c.391-.246.76-1.201.043-1.201H1.217c-.718 0-.348.955.042 1.2zm13.63 2.056L8.71 8.415c-.272.166-.463.186-.725.186-.262 0-.453-.02-.725-.186-.272-.166-5.706-3.49-6.15-3.76C.797 4.465.8 4.688.8 4.86v6.807c0 .392.453.933.8.933h12.8c.347 0 .8-.541.8-.933V4.86c0-.172.003-.395-.31-.205z" fill="currentColor"/></symbol><symbol id="icon-login-phone" viewBox="0 0 18 18"><path d="M8.974 7.424c0 .189.154.337.341.337a.7.7 0 01.704.696.34.34 0 00.341.337.34.34 0 00.341-.337 1.38 1.38 0 00-1.386-1.37.34.34 0 00-.34.337zm5.558 1.37a.338.338 0 00.341-.337c0-3.031-2.492-5.495-5.557-5.495a.34.34 0 00-.342.338.34.34 0 00.341.337c2.69 0 4.875 2.164 4.875 4.82a.34.34 0 00.342.337z" fill="currentColor"/><path d="M12.105 8.457a.34.34 0 00.341.337.34.34 0 00.341-.337c0-1.894-1.556-3.433-3.471-3.433a.34.34 0 00-.342.338c0 .189.154.337.342.337 1.54 0 2.789 1.239 2.789 2.758zM9.315.9a.34.34 0 00-.34.338.34.34 0 00.34.337c3.841 0 6.965 3.088 6.965 6.882 0 .185.15.337.341.337a.34.34 0 00.341-.337C16.962 4.289 13.532.9 9.316.9zm3.336 11.114l-.447.24c-.755.408-1.342 1.527-2.273.684L7.501 10.5 5.4 8.457c-1.055-1.334.126-1.65.54-2.4l.242-.439c.273-.5.372-1.06.29-1.62a2.557 2.557 0 00-.744-1.475 2.636 2.636 0 00-1.868-.762c-.706 0-1.372.27-1.87.762l-.174.176c-.922.911-1.028 2.48-.3 4.425C2.2 8.98 3.583 10.99 5.4 12.787c2.769 2.737 5.851 4.313 8.063 4.313.874 0 1.615-.246 2.14-.766l.178-.176c.495-.489.772-1.144.775-1.85a2.636 2.636 0 00-.775-1.845 2.683 2.683 0 00-3.13-.45z" fill="currentColor"/></symbol><symbol id="icon-plus"><path stroke="#C2C4C9" stroke-width="2" d="M7 0v14M0 7h14"/></symbol><symbol id="icon-prices" viewBox="0 0 28 28"><path d="M23.375 23.242v-3.349c0-.937-.133-1.875-.67-2.812-.535-.938-1.205-1.742-2.142-2.277-.938-.67-2.947-.804-3.884-.804l-2.143 2.277.803 1.741v4.018L14 23.51l-1.339-1.474v-4.018l.938-1.741L11.321 14c-1.072 0-3.08.134-4.018.804-.938.535-1.474 1.339-2.01 2.277-.535.937-.669 1.74-.669 2.812v3.349S8.106 24.715 14 24.715c5.893 0 9.375-1.473 9.375-1.473zM14 3.419c-2.545 0-4.018 2.41-3.617 5.09.402 2.678 1.742 4.553 3.617 4.553s3.214-1.875 3.616-4.554c.402-2.812-1.071-5.09-3.616-5.09z" fill="currentColor"/></symbol><symbol id="icon-show-more-plus" viewBox="0 0 18 18">
<rect y="8.30762" width="18" height="1.38461" rx="0.692307" fill="currentColor"/>
<rect x="8.30774" y="18" width="18" height="1.38461" rx="0.692307" transform="rotate(-90 8.30774 18)" fill="currentColor"/>
</symbol><symbol id="icon-show-more-triangle" viewBox="0 0 12 14"><path d="M11.384 7L.134 13.495V.505L11.385 7z" fill="currentColor"/></symbol><symbol id="icon-step-back-triangle" viewBox="0 0 12 14"><path d="M0 7L12 .072v13.856L0 7z" fill="currentColor"/></symbol><symbol id="icon-toggle-triangle" viewBox="0 0 10 5">
<path d="M5 5L0.669872 0.5L9.33013 0.5L5 5Z" fill="currentColor"/>
</symbol><symbol id="icon-transport-air" viewBox="0 0 23 22"><path d="M18.535 1.18c-.805.18-1.613.362-1.914.859l-2.327 4.373L1.8 9.214l-.506 1.398 9.561.853-1.622 3.786-3.626.813-.91 1.488 2.616.268.298 1.217c.134.431.603.72 1.003.63l1.209-.271 1.4 2.253.911-1.488-.895-3.65 2.626-3.157 5.01 8.293 1.01-1.081L16.8 7.989l2.831-4.058c.305-.497.106-1.307-.093-2.121-.099-.403-.603-.72-1.003-.63z" fill="currentColor"/></symbol><symbol id="icon-transport-bicycle" viewBox="0 0 25 25"><path d="M18.945 21.875a4.492 4.492 0 110-8.984 4.492 4.492 0 010 8.984zm0-7.422a2.93 2.93 0 100 5.858 2.93 2.93 0 000-5.858zM6.055 21.875a4.492 4.492 0 110-8.985 4.492 4.492 0 010 8.985zm0-7.422a2.93 2.93 0 100 5.858 2.93 2.93 0 000-5.858zM15.625 6.25a1.557 1.557 0 001.563-1.567 1.541 1.541 0 00-1.553-1.558 1.562 1.562 0 00-.01 3.125z" fill="currentColor"/><path d="M17.947 9.375H15.81a.196.196 0 01-.171-.102l-1.55-2.84a1.514 1.514 0 00-2.411-.378L8.267 9.492a1.59 1.59 0 00-.454 1.094c0 .85.615 1.152.903 1.323a155.61 155.61 0 012.909 1.714.195.195 0 01.094.167v3.375c0 .42.323.78.743.802a.782.782 0 00.82-.78v-4.199a.781.781 0 00-.326-.634l-1.807-1.3a.195.195 0 01-.028-.293l2.05-2.187a.195.195 0 01.314.039l1.066 1.923a.781.781 0 00.683.402h2.735a.78.78 0 00.781-.82.797.797 0 00-.803-.743z" fill="currentColor"/></symbol><symbol id="icon-transport-bus" viewBox="0 0 18 20"><path d="M4.501 13.571c0-.394-.146-.73-.44-1.01a1.481 1.481 0 00-1.06-.418c-.413 0-.767.14-1.06.418-.292.28-.439.616-.439 1.01 0 .395.147.732.44 1.01.292.28.646.419 1.06.419.414 0 .767-.14 1.06-.418.293-.28.44-.616.44-1.01zm11.995 0c0-.394-.146-.73-.44-1.01a1.482 1.482 0 00-1.06-.418c-.413 0-.767.14-1.06.418-.292.28-.439.616-.439 1.01 0 .395.147.732.44 1.01.292.28.646.419 1.06.419.414 0 .767-.14 1.06-.418.293-.28.44-.616.44-1.01zm-.539-4.42l-.843-4.285a.744.744 0 00-.738-.58H3.623a.744.744 0 00-.738.58L2.04 9.152a.682.682 0 00.164.591c.149.171.34.257.574.257h12.44a.725.725 0 00.574-.257.682.682 0 00.164-.591zm-2.647-6.83a.505.505 0 00-.164-.379.556.556 0 00-.398-.156H5.25a.556.556 0 00-.399.156.505.505 0 00-.164.38c0 .148.055.275.164.379.11.104.243.156.399.156h7.497a.556.556 0 00.398-.156.505.505 0 00.164-.38zm4.685 8.092v6.73h-1.499v1.428c0 .395-.146.731-.44 1.01a1.482 1.482 0 01-1.06.419c-.413 0-.767-.14-1.06-.419a1.344 1.344 0 01-.439-1.01v-1.428H4.501v1.428c0 .395-.146.731-.44 1.01a1.481 1.481 0 01-1.06.419c-.413 0-.767-.14-1.06-.419a1.345 1.345 0 01-.439-1.01v-1.428h-1.5v-6.73c0-.833.099-1.663.294-2.489l1.206-5.067c.07-.58.451-1.09 1.142-1.529C3.336.89 4.234.558 5.34.335 6.444.112 7.664 0 8.999 0c1.336 0 2.556.112 3.66.335 1.106.223 2.004.554 2.695.993.691.44 1.072.949 1.142 1.53l1.23 5.066c.18.759.27 1.589.27 2.489z" fill="currentColor"/></symbol><symbol id="icon-transport-walk" viewBox="0 0 22 24"><path d="M15.454 6c1.005 0 1.819-.895 1.819-2s-.814-2-1.819-2c-1.004 0-1.818.895-1.818 2s.814 2 1.818 2zM14.343 10.969c.208.342.508.605.857.754.35.148.732.175 1.096.076l3.014-.829-.44-1.94-3.014.829-1.253-2.067a1.83 1.83 0 00-1.157-.854l-3.496-.77a1.669 1.669 0 00-1.156.164c-.358.193-.649.51-.827.903L6.46 10.551l1.626.895 1.508-3.317 1.788.394L6.758 17h-4.03v2h4.03c.635 0 1.232-.372 1.56-.971l1.743-3.196 4.699 1.034 1.65 5.449 1.725-.633-1.65-5.448a2.032 2.032 0 00-.523-.867 1.767 1.767 0 00-.846-.463l-2.763-.607 1.61-2.954.38.625z" fill="currentColor"/></symbol><symbol id="icon-vkontakte" viewBox="0 0 31 16"><path d="M23.946 15.777a4.05 4.05 0 01-2.08-.63 10.17 10.17 0 01-1.78-1.53c-.44-.44-1.17-1.18-1.45-1.18s-.48.92-.47 1.57a1.75 1.75 0 01-.47 1.21 2.26 2.26 0 01-1.22.5h-1.92a11.32 11.32 0 01-7.43-3c-3.68-3.37-6.84-9.81-6.97-10.09a1.34 1.34 0 01.15-1.48 2.07 2.07 0 011.36-.48h4.2c.338.05.661.169.95.35.272.183.49.435.63.73a22.09 22.09 0 001.48 2.67c1.31 2 1.89 2.46 2.1 2.56.234-.937.298-1.91.19-2.87a2.702 2.702 0 00-.21-1.28 1.33 1.33 0 00-.77-.29l-.73-.69c-.14-.66.59-1.23 1.1-1.45a8.69 8.69 0 013.15-.38h.71a9.11 9.11 0 012.15.2c1.7.36 1.64 1.73 1.57 3.31 0 .46-.05 1-.05 1.62v.48c-.04.436-.009.875.09 1.3a9.09 9.09 0 002.07-2.48 20.396 20.396 0 001.52-2.8 1.58 1.58 0 011.6-.95h4.28a2 2 0 01.38 0c1 0 1.59.29 1.83.85s.17 1.66-2.36 4.61l-1 1.13a7.34 7.34 0 00-1.24 1.59c.379.431.809.814 1.28 1.14 1.15.867 2.16 1.902 3 3.07a1.6 1.6 0 01.26 1.68 2.3 2.3 0 01-1.88 1l-3.79.05-.23-.04zm-5.31-4.84c.9 0 1.68.79 2.51 1.62.448.49.952.926 1.5 1.3a2.51 2.51 0 001.4.42h.1l3.8-.05c.188-.01.371-.058.54-.14l-.1-.16a13.221 13.221 0 00-2.68-2.72c-1.19-1-1.8-1.47-1.87-2.24-.07-.77.49-1.44 1.61-2.71l1-1.11a10.731 10.731 0 002.05-2.95 5.66 5.66 0 00-.67 0h-4.37a.55.55 0 00-.24 0 20.507 20.507 0 01-1.65 3.05c-1.89 2.82-2.78 3.2-3.41 3.2a1.19 1.19 0 01-.56-.14c-1-.57-1-1.84-.94-2.76v-.43c0-.65 0-1.21.05-1.69.08-1.68 0-1.69-.38-1.78a8.561 8.561 0 00-1.86-.16h-.69a13 13 0 00-1.9.1c.096.07.18.155.25.25.413.65.618 1.41.59 2.18.13 1.65.06 3.8-1 4.32a1.38 1.38 0 01-.6.13c-.93 0-1.85-.88-3.42-3.26a23.42 23.42 0 01-1.61-2.85l-.08-.1a1.21 1.21 0 00-.32-.11h-4.07c.59 1.22 3.39 6.62 6.52 9.45a10 10 0 006.42 2.63h1.85a.999.999 0 00.27-.1v-.09c0-.27 0-2.6 1.58-3 .122-.048.25-.081.38-.1z" fill="currentColor"/></symbol></svg>
